<?xml version="1.0" encoding="UTF-8"?>
<svg xmlns="http://www.w3.org/2000/svg" width="32" height="32" viewBox="0 0 31.8 19.42" aria-hidden="true">
  <g fill="#ffffff">
    <path d="M12.17,1.2l-3.04,5.27L6.08,1.2H0l9.13,15.82L18.25,1.2h-6.08Z"/>
    <path d="M19.99,19.42c-.22,0-.54-.07-.78-.42-3.57-5.07-2.96-12.55,1.35-16.67,1.57-1.5,3.5-2.33,5.42-2.33.28,0,.55.02.83.05,2.48.31,4.25,1.93,4.63,4.21.22,1.29,0,2.63-.64,3.88l-.05.11.07.1c.56.82.89,1.78.97,2.78.17,2.18-1.11,4.42-3.18,5.59-.89.5-1.87.76-2.83.76h0c-1.39,0-2.7-.52-3.79-1.5-.38-.34-.31-.7-.24-.89.15-.39.55-.67.95-.67.23,0,.43.09.62.25.68.62,1.5.94,2.37.94,1.33,0,2.67-.74,3.5-1.94.75-1.08.92-2.36.48-3.51l-.11-.28-.22.21c-.23.23-.48.44-.75.64-1.02.76-2.38,1.24-3.56,1.24-1,0-2.3-.34-2.83-1.96-.3-.91-.17-1.79.37-2.53.72-.99,2.13-1.65,3.52-1.65.14,0,.27,0,.4.02.94.09,1.85.4,2.64.9l.22.14.08-.24c.13-.38.2-.76.22-1.14.09-1.6-.77-2.94-2.19-3.4-.5-.16-1.01-.25-1.52-.25-2.93,0-5.17,2.62-6.2,4.87-1.69,3.67-1.27,8.03,1.09,11.38.19.27.22.54.09.8-.16.31-.55.53-.94.53ZM26.04,7.61c-.53,0-1,.14-1.42.42-.38.25-.62.62-.67.99-.03.29.06.55.27.77.24.25.57.38.99.38.49,0,.97-.18,1.22-.29.65-.28,1.27-.71,1.78-1.25l.17-.17-.2-.13c-.68-.46-1.44-.72-2.14-.72Z"/>
  </g>
</svg>