<?xml version="1.0" encoding="UTF-8"?>
<svg id="b" data-name="Layer 2" xmlns="http://www.w3.org/2000/svg" viewBox="0 0 756.89 107.09">
  <defs>
    <style>
      .d {
        fill: #181818;
      }
    </style>
  </defs>
  <g id="c" data-name="Layer 1">
    <g>
      <g>
        <path class="d" d="M336.15,51.75c0-12.28-7.8-20.2-26.83-20.2s-26.83,7.92-26.83,20.2h17.43c.57-5.28,3.78-7.92,9.63-7.92s9.06,2.87,9.06,7.92c0,2.53-1.38,4.02-6.31,4.48l-12.61,1.03c-15.14,1.26-20.41,8.72-20.41,17.91,0,10.9,7.45,17.91,21.56,17.91,9.86,0,15.37-3.21,18.69-9.41,0,3.9.92,6.2,2.52,8.26h15.94c-1.15-1.95-1.84-7.12-1.84-15.15v-25.02ZM318.6,68.05c0,7.23-4.59,13.32-12.61,13.32-6.42,0-9.17-2.98-9.17-7.46,0-3.67,2.52-6.31,9.06-6.89l6.42-.46c3.21-.34,5.5-.92,6.31-1.84v3.33Z"/>
        <path class="d" d="M367.57,14.79h-17.43v17.91h-8.94v12.28h8.94v28.93c0,14.12,4.59,18.71,19.04,18.71,2.75,0,7.91-.46,10.55-.69v-11.71h-6.19c-4.13,0-5.96-1.49-5.96-5.62v-29.62h12.15v-12.28h-12.15V14.79Z"/>
        <rect class="d" x="387.75" y="32.7" width="17.54" height="59.23"/>
        <path class="d" d="M396.46,7.56c-6.31,0-9.86,3.79-9.86,8.84s3.56,8.84,9.86,8.84,9.98-3.79,9.98-8.84-3.55-8.84-9.98-8.84Z"/>
        <path class="d" d="M444.05,31.55c-19.84,0-30.96,12.28-30.96,30.76s11.12,30.76,30.96,30.76,30.96-12.28,30.96-30.76-11.12-30.76-30.96-30.76ZM444.05,79.88c-8.6,0-13.42-5.62-13.42-17.56s4.82-17.56,13.42-17.56,13.42,5.62,13.42,17.56-4.82,17.56-13.42,17.56Z"/>
        <polygon class="d" points="274.67 7.56 245.58 58 216.49 7.56 195.15 7.56 245.58 94.99 296.01 7.56 274.67 7.56"/>
        <g>
          <path class="d" d="M522.56,91.93h-37.51V10.74h35.23c15.05,0,23.15,8.78,23.15,20.64,0,9.01-4.67,15.96-13.45,18.93,10.26,2.51,15.73,10.49,15.73,20.18,0,11.86-8.1,21.44-23.15,21.44ZM520.28,13.48h-32.04v35.8h32.04c13.11,0,19.95-7.64,19.95-17.9s-6.84-17.9-19.95-17.9ZM522.56,51.79h-34.32v37.4h34.32c13.11,0,19.95-8.44,19.95-18.7s-6.84-18.7-19.95-18.7Z"/>
          <path class="d" d="M554.83,62.51c0-19.27,9.24-30.56,26.22-30.56s26.22,11.29,26.22,30.56-9.24,30.56-26.22,30.56-26.22-11.29-26.22-30.56ZM604.09,62.51c0-18.13-8.44-27.82-23.03-27.82s-23.03,9.69-23.03,27.82,8.44,27.82,23.03,27.82,23.03-9.69,23.03-27.82Z"/>
          <path class="d" d="M616.41,75.28c0-8.44,5.7-14.59,19.5-15.74l9.46-.8c10.49-.91,13.46-2.85,13.46-8.55,0-9.58-5.25-15.51-18.02-15.51-11.63,0-17.79,4.79-18.47,15.51h-2.74c0-11.29,6.61-18.24,21.21-18.24s21.21,6.96,21.21,18.24v26.68c0,7.98.68,13.11,1.83,15.05h-2.51c-1.94-2.85-2.51-5.36-2.51-13.45-2.97,9.69-11.17,14.59-21.89,14.59-13,0-20.52-6.84-20.52-17.79ZM658.83,64.79v-7.87c-1.82,2.62-6.5,4.11-13.46,4.67l-9.46.8c-11.52,1.03-16.31,6.04-16.31,12.89,0,8.44,5.25,15.05,17.79,15.05,14.37,0,21.44-11.63,21.44-25.54Z"/>
          <path class="d" d="M675.7,91.93v-58.84h3.19v14.94c3.31-10.38,8.89-15.39,18.47-15.39,1.6,0,3.19.23,5.25.46v2.85l-5.25-.34c-11.18,0-18.47,9.46-18.47,26.68v29.65h-3.19Z"/>
          <path class="d" d="M705.58,62.51c0-19.27,9.35-30.56,25.2-30.56,11.29,0,19.5,4.79,22.92,14.94V10.74h3.19v81.18h-3.19v-13.8c-3.42,10.15-11.63,14.94-22.92,14.94-15.85,0-25.2-11.29-25.2-30.56ZM753.7,62.51c0-19.27-9.24-27.82-22.46-27.82s-22.46,8.55-22.46,27.82,9.24,27.82,22.46,27.82,22.46-8.55,22.46-27.82Z"/>
        </g>
      </g>
      <path class="d" d="M172.86,61.11c-.45-5.81-2.39-11.09-5.44-15.55,3.36-6.57,4.84-14.03,3.58-21.61-2.22-13.35-12.88-22.02-25.96-23.67-12.94-1.63-25.39,3.72-34.67,12.59-24.5,23.42-26.57,64.36-7.45,91.51,4.51,6.4,15.14.28,10.58-6.18-12.43-17.65-14.86-40.69-5.78-60.43,6.89-14.97,22.52-30.26,40.43-24.4,7.55,2.47,11.5,9.56,11.07,17.3-.11,2.01-.52,3.98-1.15,5.88-4.32-2.73-9.33-4.48-14.73-5-13.23-1.28-29.22,8.87-24.31,23.9,5.35,16.39,25.57,12.41,36.2,4.47,1.46-1.09,2.84-2.27,4.14-3.53,6.92,18.12-17.25,37.08-32.61,23.18-5.83-5.28-14.53,3.36-8.66,8.66,10.43,9.44,24.72,11.07,37.02,4.12,10.93-6.17,18.72-18.48,17.74-31.24ZM142.36,53.48c-3.08,1.34-8.02,2.61-10.71-.25-2.5-2.66-.69-6.11,1.97-7.88,5.5-3.66,12.6-2.08,18.03,1.62-2.67,2.76-5.86,5.02-9.29,6.51ZM65.76,7.56l-16.44,28.51L32.88,7.56H0l49.32,85.52L98.65,7.56h-32.88Z"/>
    </g>
  </g>
</svg>